<svg xmlns="http://www.w3.org/2000/svg" xmlns:xlink="http://www.w3.org/1999/xlink" viewBox="0 0 100 125" version="1.1" x="0px" y="0px"><title>transfer</title><g stroke="none" stroke-width="1" fill="none" fill-rule="evenodd"><path d="M73.125,42.25 L27,42.25 C26.222,42.25 25.515,41.798 25.187,41.093 C24.858,40.387 24.97,39.555 25.472,38.96 L34.12,28.71 C34.832,27.866 36.093,27.759 36.938,28.471 C37.782,29.184 37.89,30.445 37.177,31.29 L31.305,38.25 L73.125,38.25 C74.229,38.25 75.125,39.146 75.125,40.25 C75.125,41.354 74.229,42.25 73.125,42.25" fill="#000000"/><path d="M64.4756,73 C64.0206,73 63.5626,72.846 63.1866,72.528 C62.3426,71.816 62.2356,70.555 62.9486,69.71 L68.8206,62.75 L26.9996,62.75 C25.8956,62.75 24.9996,61.854 24.9996,60.75 C24.9996,59.646 25.8956,58.75 26.9996,58.75 L73.1246,58.75 C73.9036,58.75 74.6106,59.202 74.9386,59.907 C75.2666,60.613 75.1556,61.445 74.6536,62.04 L66.0046,72.29 C65.6096,72.759 65.0446,73 64.4756,73" fill="#000000"/></g></svg>